<?xml version="1.0" encoding="utf-8"?>
<!-- Generator: Adobe Illustrator 16.0.0, SVG Export Plug-In . SVG Version: 6.00 Build 0)  -->
<!DOCTYPE svg PUBLIC "-//W3C//DTD SVG 1.1//EN" "http://www.w3.org/Graphics/SVG/1.1/DTD/svg11.dtd">
<svg version="1.1" id="Capa_1" xmlns="http://www.w3.org/2000/svg" xmlns:xlink="http://www.w3.org/1999/xlink" x="0px" y="0px"
	 width="279.871px" height="156.408px" viewBox="0 0 279.871 156.408" enable-background="new 0 0 279.871 156.408"
	 xml:space="preserve">
<g>
	<g enable-background="new    ">
		<path fill="#FFFFFF" d="M28.651,64.646h-8.919V22.007h8.919V64.646z"/>
		<path fill="#FFFFFF" d="M44.033,64.646h-8.919V22.007h8.919L58.607,45.91V22.007h8.37v42.639h-8.37L44.033,40.031V64.646z"/>
	</g>
	<g enable-background="new    ">
		<path fill="none" stroke="#1B9CD8" stroke-miterlimit="10" d="M28.651,64.646h-8.919V22.007h8.919V64.646z"/>
		<path fill="none" stroke="#1B9CD8" stroke-miterlimit="10" d="M44.033,64.646h-8.919V22.007h8.919L58.607,45.91V22.007h8.37
			v42.639h-8.37L44.033,40.031V64.646z"/>
	</g>
	<g enable-background="new    ">
		<path fill="#009FE3" d="M73.439,46.801V22.007h31.862v7.305H82.358v10.541h22.943v24.793H73.439v-7.305h23.493V46.801H73.439z"/>
		<path fill="#009FE3" d="M135.257,46.801h-14.574v17.845h-8.919V22.007h31.862v42.639h-8.37V46.801z M120.684,29.312v10.541h14.574
			V29.312H120.684z"/>
		<path fill="#009FE3" d="M159.009,64.646h-8.919V22.007h8.919l14.573,23.903V22.007h8.37v42.639h-8.37l-14.573-24.615V64.646z"/>
		<path fill="#009FE3" d="M197.334,29.312v10.541h22.943v6.948h-22.943v10.541h22.943v7.305h-31.862V22.007h31.862v7.305H197.334z"
			/>
	</g>
	<g enable-background="new    ">
		<path fill="#FFFFFF" d="M67.569,99.551V84.972l3.361-3.742h9.985v7.305h-4.977v11.165l-2.165,2.791l2.165,2.257v11.817h4.977
			v7.305H70.898l-3.329-3.741v-15.084l-3.619-2.405L67.569,99.551z"/>
	</g>
	<g enable-background="new    ">
		<path fill="none" stroke="#1B9CD8" stroke-miterlimit="10" d="M67.569,99.551V84.972l3.361-3.742h9.985v7.305h-4.977v11.165
			l-2.165,2.791l2.165,2.257v11.817h4.977v7.305H70.898l-3.329-3.741v-15.084l-3.619-2.405L67.569,99.551z"/>
	</g>
	<g enable-background="new    ">
		<path fill="#009FE3" d="M96.297,116.564h22.943v7.305H87.378v-42.64h31.862v7.305H96.297V116.564z"/>
		<path fill="#009FE3" d="M157.565,81.229v42.64h-31.862v-42.64H157.565z M149.195,88.534h-14.573v28.03h14.573V88.534z"/>
		<path fill="#009FE3" d="M164.028,123.869v-42.64h28.501l3.361,3.742v35.156l-3.328,3.741H164.028z M187.521,88.534h-14.574v28.03
			h14.574V88.534z"/>
		<path fill="#009FE3" d="M211.272,88.534v10.541h22.943v6.949h-22.943v10.54h22.943v7.305h-31.862v-42.64h31.862v7.305H211.272z"/>
	</g>
	<g enable-background="new    ">
		<path fill="#FFFFFF" d="M257.645,102.639l-3.619,2.405v15.084l-3.328,3.741H240.68v-7.305h4.977v-11.817l2.165-2.257l-2.165-2.791
			V88.534h-4.977v-7.305h9.985l3.36,3.742v14.579L257.645,102.639z"/>
	</g>
	<g enable-background="new    ">
		<path fill="none" stroke="#1B9CD8" stroke-miterlimit="10" d="M257.645,102.639l-3.619,2.405v15.084l-3.328,3.741H240.68v-7.305
			h4.977v-11.817l2.165-2.257l-2.165-2.791V88.534h-4.977v-7.305h9.985l3.36,3.742v14.579L257.645,102.639z"/>
	</g>
</g>
</svg>
