<?xml version="1.0" encoding="utf-8"?>
<!-- Generator: Adobe Illustrator 16.0.0, SVG Export Plug-In . SVG Version: 6.00 Build 0)  -->
<!DOCTYPE svg PUBLIC "-//W3C//DTD SVG 1.1//EN" "http://www.w3.org/Graphics/SVG/1.1/DTD/svg11.dtd">
<svg version="1.1" id="Capa_1" xmlns="http://www.w3.org/2000/svg" xmlns:xlink="http://www.w3.org/1999/xlink" x="0px" y="0px"
	 width="539.694px" height="135.167px" viewBox="0 0 539.694 135.167" enable-background="new 0 0 539.694 135.167"
	 xml:space="preserve">
<rect x="13.194" y="4.667" fill="#1A8BCB" width="136" height="122.667"/>
<rect x="195.167" y="1.5" fill="#1A8BCB" width="136" height="122.666"/>
<rect x="377.86" y="1.5" fill="#1A8BCB" width="136" height="122.666"/>
<path fill="none" stroke="#000FFF" stroke-width="3" stroke-linecap="round" stroke-miterlimit="10" d="M176.939,108.749"/>
<path fill="none" stroke="#000FFF" stroke-width="3" stroke-linecap="round" stroke-miterlimit="10" d="M121.527,85.333"/>
<path fill="#FFFFFF" stroke="#000FFF" stroke-width="3" stroke-miterlimit="10" d="M26.527,4.667"/>
<path fill="#FFFFFF" stroke="#000FFF" stroke-width="3" stroke-miterlimit="10" d="M21.194,4.667"/>
<path fill="#FFFFFF" stroke="#000FFF" stroke-width="3" stroke-miterlimit="10" d="M17.194,4.667"/>
<g>
	
		<line fill="none" stroke="#F9F9F9" stroke-width="3" stroke-linecap="round" stroke-miterlimit="10" x1="115.195" y1="127.333" x2="39.861" y2="127.333"/>
	<text transform="matrix(1 0 0 1 37.1943 88.6675)" fill="#FFFFFF" font-family="'SquareFont'" font-size="72">C#</text>
	<g>
		<polyline fill="none" stroke="#FFFFFF" stroke-width="3" stroke-linecap="round" stroke-miterlimit="10" points="129.861,127.333 
			149.194,127.333 149.194,4.667 13.194,4.667 13.194,127.333 30.527,127.333 		"/>
		
			<line fill="none" stroke="#FDFEFF" stroke-width="3" stroke-linecap="round" stroke-miterlimit="10" x1="86.419" y1="108.883" x2="32.527" y2="133.667"/>
		
			<line fill="none" stroke="#F2F6F9" stroke-width="3" stroke-linecap="round" stroke-miterlimit="10" x1="157.194" y1="75.333" x2="97.761" y2="102.667"/>
		<rect x="13.193" y="102.109" fill="#FFFFFF" width="13.613" height="8.333"/>
		<rect y="113.667" fill="#FFFFFF" width="20" height="10"/>
		<rect x="142.667" y="20" fill="#FFFFFF" width="20" height="10"/>
		
			<rect x="154.527" y="10.333" fill="none" stroke="#F2F6F9" stroke-width="3" stroke-linecap="round" stroke-miterlimit="10" width="19" height="5.667"/>
	</g>
</g>
<g>
	
		<line fill="none" stroke="#F9F9F9" stroke-width="3" stroke-linecap="round" stroke-miterlimit="10" x1="483.526" y1="124.167" x2="408.192" y2="124.167"/>
	<g>
		<polyline fill="none" stroke="#FFFFFF" stroke-width="3" stroke-linecap="round" stroke-miterlimit="10" points="494.527,124.167 
			513.86,124.167 513.86,1.5 377.86,1.5 377.86,124.167 395.194,124.167 		"/>
		
			<line fill="none" stroke="#FDFEFF" stroke-width="3" stroke-linecap="round" stroke-miterlimit="10" x1="451.086" y1="105.716" x2="397.194" y2="130.5"/>
		
			<line fill="none" stroke="#F2F6F9" stroke-width="3" stroke-linecap="round" stroke-miterlimit="10" x1="521.86" y1="72.167" x2="462.427" y2="99.5"/>
		<rect x="377.86" y="98.942" fill="#FFFFFF" width="13.613" height="8.333"/>
		<rect x="364.667" y="110.5" fill="#FFFFFF" width="20" height="10"/>
		<rect x="507.333" y="16.833" fill="#FFFFFF" width="20" height="10"/>
		
			<rect x="519.194" y="7.167" fill="none" stroke="#F2F6F9" stroke-width="3" stroke-linecap="round" stroke-miterlimit="10" width="19" height="5.667"/>
	</g>
	<text transform="matrix(1 0 0 1 383.8608 43.0015)" fill="#FFFFFF" font-family="'SquareFont'" font-size="36">html</text>
	<text transform="matrix(1 0 0 1 430.1392 59.4995)" fill="#FFFFFF" font-family="'SquareFont'" font-size="14">&amp;</text>
	<text transform="matrix(1 0 0 1 424.1401 89.9995)" fill="#FFFFFF" font-family="'SquareFont'" font-size="36">Css</text>
</g>
<g>
	
		<line fill="none" stroke="#F9F9F9" stroke-width="3" stroke-linecap="round" stroke-miterlimit="10" x1="300.834" y1="123.667" x2="225.5" y2="123.667"/>
	<g>
		<polyline fill="none" stroke="#FFFFFF" stroke-width="3" stroke-linecap="round" stroke-miterlimit="10" points="311.834,124.167 
			331.167,124.167 331.167,1.5 195.167,1.5 195.167,124.167 212.5,124.167 		"/>
		
			<line fill="none" stroke="#FDFEFF" stroke-width="3" stroke-linecap="round" stroke-miterlimit="10" x1="268.393" y1="105.716" x2="214.5" y2="130.5"/>
		
			<line fill="none" stroke="#F2F6F9" stroke-width="3" stroke-linecap="round" stroke-miterlimit="10" x1="339.167" y1="72.167" x2="279.734" y2="99.5"/>
		<rect x="195.167" y="98.942" fill="#FFFFFF" width="13.613" height="8.333"/>
		<rect x="181.973" y="110.5" fill="#FFFFFF" width="20" height="10"/>
		<rect x="324.64" y="16.833" fill="#FFFFFF" width="20" height="10"/>
		
			<rect x="336.5" y="7.167" fill="none" stroke="#F2F6F9" stroke-width="3" stroke-linecap="round" stroke-miterlimit="10" width="19" height="5.667"/>
	</g>
	<text transform="matrix(1 0 0 1 211.5005 88.0005)" fill="#FFFFFF" font-family="'SquareFont'" font-size="72">js</text>
</g>
</svg>
