<?xml version="1.0" encoding="utf-8"?>
<!-- Generator: Adobe Illustrator 16.0.0, SVG Export Plug-In . SVG Version: 6.00 Build 0)  -->
<!DOCTYPE svg PUBLIC "-//W3C//DTD SVG 1.1//EN" "http://www.w3.org/Graphics/SVG/1.1/DTD/svg11.dtd">
<svg version="1.1" id="Capa_1" xmlns="http://www.w3.org/2000/svg" xmlns:xlink="http://www.w3.org/1999/xlink" x="0px" y="0px"
	 width="960px" height="560px" viewBox="0 0 960 560" enable-background="new 0 0 960 560" xml:space="preserve">
<g>
	<g>
		<g>
			<rect x="-19.999" y="105.097" fill="#1A8BCB" width="329.983" height="329.986"/>
		</g>
	</g>
	<g>
		<rect x="344.483" y="105.097" fill="#1A8BCB" width="329.983" height="329.986"/>
	</g>
	<g>
		<rect x="704.464" y="105.097" fill="#1A8BCB" width="329.984" height="329.986"/>
	</g>
	<g>
		<path fill="#FFFDFD" d="M35.456,312.996H14.567V204.314h74.624v63.196H35.456V312.996z M35.456,222.932V249.8h34.133v-26.868
			H35.456z"/>
		<path fill="#FFFDFD" d="M125.217,312.996h-20.889V204.314h20.889V249.8h34.133v-45.486h19.602v108.682H159.35V267.51h-34.133
			V312.996z"/>
		<path fill="#FFFDFD" d="M214.978,312.996h-20.889V204.314h74.624v63.196h-53.735V312.996z M214.978,222.932V249.8h34.133v-26.868
			H214.978z"/>
	</g>
	<g>
		<path fill="#F9F7F7" d="M433.347,266.147v28.229h34.133v-90.063h19.602v108.682h-74.624v-46.849H433.347z"/>
		<path fill="#F9F7F7" d="M502.219,267.51v-63.196h74.624v18.618h-53.735V249.8h53.735v63.196h-74.624v-18.619h55.021V267.51
			H502.219z"/>
	</g>
	<g>
		<path fill="#FCFAFA" d="M744.71,237.925h39.175v13.573h-54.403v-79.232h54.403v13.573H744.71V237.925z"/>
		<path fill="#FCFAFA" d="M794.92,218.338v-46.072h54.403v13.573h-39.175v19.587h39.175v46.072H794.92v-13.573h40.113v-19.587
			H794.92z"/>
		<path fill="#FCFAFA" d="M860.358,218.338v-46.072h54.403v13.573h-39.175v19.587h39.175v46.072h-54.403v-13.573h40.112v-19.587
			H860.358z"/>
	</g>
	<g>
		<path fill="#FCFAFA" d="M784.273,356.494h-15.229v-79.233h15.229v33.161h24.885v-33.161h14.29v79.233h-14.29v-33.161h-24.885
			V356.494z"/>
		<path fill="#FCFAFA" d="M855.064,290.834h-20.581v-13.573h54.403v13.573h-18.594v65.66h-15.229V290.834z"/>
		<path fill="#FCFAFA" d="M915.15,356.494h-15.229v-79.233h15.229l15.449,43.423l16.057-43.423h14.29v79.233h-14.29v-33.161
			l-11.091,33.161h-8.938l-11.477-33.161V356.494z"/>
		<path fill="#FCFAFA" d="M987.21,342.92h39.175v13.574h-54.403v-79.233h15.229V342.92z"/>
	</g>
</g>
</svg>
